<svg width="870" height="985" viewBox="0 0 870 985" fill="none" xmlns="http://www.w3.org/2000/svg">
<g opacity="0.16">
<path d="M451.651 615.913C385.598 474.26 446.883 305.881 588.535 239.827C730.188 173.773 898.568 235.058 964.622 376.711C1030.68 518.364 969.39 686.743 827.737 752.797C686.085 818.851 517.705 757.566 451.651 615.913Z" stroke="#6DA3B0"/>
<path d="M503.845 727.842C437.908 586.44 499.287 418.263 640.94 352.209C782.594 286.155 950.878 347.238 1016.81 488.64C1082.75 630.042 1021.37 798.219 879.719 864.273C738.066 930.327 569.781 869.244 503.845 727.842Z" stroke="#6DA3B0"/>
<path d="M758.517 609.086C692.58 467.684 753.959 299.507 895.613 233.453C1037.27 167.399 1205.55 228.483 1271.49 369.884C1337.42 511.286 1276.05 679.463 1134.39 745.517C992.738 811.571 824.454 750.488 758.517 609.086Z" stroke="#6DA3B0"/>
</g>
<path fill-rule="evenodd" clip-rule="evenodd" d="M679.747 209.849C681.331 209.365 683.008 210.256 683.493 211.841L686.196 220.682C686.68 222.266 685.788 223.943 684.204 224.428L675.373 227.128C673.788 227.612 672.111 226.72 671.627 225.136L668.924 216.295C668.439 214.711 669.331 213.033 670.916 212.549L679.747 209.849Z" fill="#588FFF"/>
<path fill-rule="evenodd" clip-rule="evenodd" d="M346.71 829.959C347.083 828.345 348.693 827.338 350.308 827.711L359.316 829.79C360.93 830.163 361.937 831.774 361.564 833.388L359.484 842.396C359.112 844.011 357.501 845.017 355.886 844.645L346.878 842.565C345.264 842.192 344.257 840.581 344.63 838.967L346.71 829.959Z" fill="#FF761B"/>
<path fill-rule="evenodd" clip-rule="evenodd" d="M119.806 397.74C118.928 396.335 119.355 394.484 120.761 393.606L128.601 388.707C130.006 387.829 131.856 388.256 132.734 389.661L137.633 397.501C138.511 398.906 138.084 400.757 136.679 401.635L128.839 406.534C127.434 407.412 125.583 406.985 124.705 405.58L119.806 397.74Z" fill="#825EEE"/>
<path fill-rule="evenodd" clip-rule="evenodd" d="M766.981 543.044C768.111 541.832 770.009 541.766 771.221 542.896L773.805 545.305C775.017 546.435 775.083 548.333 773.953 549.545L771.544 552.129C770.414 553.341 768.515 553.407 767.303 552.277L764.72 549.868C763.508 548.738 763.442 546.839 764.572 545.628L766.981 543.044Z" fill="#282A5B"/>
</svg>
