<svg width="1920" height="1229" viewBox="0 0 1920 1229" fill="none" xmlns="http://www.w3.org/2000/svg">
<path d="M345.275 482.433C452.795 482.433 540.271 569.891 540.271 677.391L540.271 914.53C540.271 978.261 592.136 1030.14 655.906 1030.14C719.676 1030.14 771.541 978.287 771.541 914.53L771.541 527.391C771.541 419.891 859.016 332.433 966.536 332.433C1074.06 332.433 1161.53 419.891 1161.53 527.391L1161.53 724.53C1161.53 788.261 1213.4 840.143 1277.17 840.143C1340.94 840.143 1392.8 788.287 1392.8 724.53L1392.8 257.391C1392.8 205.049 1413.26 155.906 1450.43 119.024C1487.24 82.4993 1535.96 62.4328 1587.77 62.4328C1588.26 62.4328 1588.77 62.4328 1589.26 62.4328C1695.96 63.2262 1782.77 151.555 1782.77 259.336L1782.77 376.408C1782.77 384.675 1789.47 391.381 1797.74 391.381L1920.52 391.381L1920.52 470.726L1797.69 470.726C1745.67 470.726 1703.36 428.417 1703.36 376.408L1703.36 259.336C1703.36 194.99 1651.87 142.264 1588.62 141.778C1557.44 141.522 1528.3 153.475 1506.29 175.333C1484.25 197.191 1472.11 226.344 1472.11 257.391L1472.11 724.53C1472.11 832.029 1384.64 919.488 1277.12 919.488C1169.6 919.488 1082.12 832.029 1082.12 724.53L1082.12 527.391C1082.12 463.659 1030.25 411.778 966.485 411.778C902.716 411.778 850.85 463.633 850.85 527.391L850.85 914.53C850.85 1022.03 763.375 1109.49 655.855 1109.49C548.335 1109.49 460.86 1022.03 460.86 914.53L460.86 677.391C460.86 613.659 408.994 561.778 345.224 561.778C281.455 561.778 229.589 613.633 229.589 677.391L229.589 808.131C229.589 856.173 190.498 895.257 142.447 895.257L0.443463 895.257L0.443456 815.912L142.447 815.912C146.747 815.912 150.229 812.431 150.229 808.131L150.229 677.391C150.229 569.891 237.704 482.433 345.224 482.433L345.275 482.433Z" fill="#193F4A"/>
<path d="M0.443703 858.198L26.0437 858.198L26.0437 853.079L0.443703 853.079L0.443703 858.198Z" fill="white"/>
<path d="M345.045 519.601L345.199 519.601C360.021 519.601 374.69 521.648 388.796 525.692L387.388 530.607C373.743 526.691 359.535 524.694 345.199 524.694C342.869 524.72 340.412 524.745 338.031 524.848L337.801 519.729C340.233 519.626 342.665 519.55 345.071 519.55L345.045 519.601ZM966.409 371.601C971.349 371.601 976.316 371.831 981.205 372.292L980.745 377.385C964.233 375.85 947.26 377.001 931.157 380.815L929.98 375.824C941.858 373.009 954.121 371.601 966.434 371.601L966.409 371.601ZM1573.1 93.2664L1573.56 98.3598C1556.9 99.8699 1540.72 104.093 1525.49 110.876L1523.41 106.192C1539.16 99.1788 1555.9 94.802 1573.13 93.2408L1573.1 93.2664ZM1624.33 96.9777C1641.07 101.022 1656.97 107.804 1671.59 117.147L1668.82 121.472C1654.69 112.437 1639.3 105.885 1623.13 101.969L1624.33 97.0033L1624.33 96.9777ZM287.522 530.479L289.391 535.239C273.878 541.331 259.516 549.905 246.716 560.707L243.413 556.79C256.623 545.631 271.471 536.775 287.522 530.479ZM1030.87 385.345C1046.59 392.384 1061 401.931 1073.7 413.705L1070.22 417.467C1057.93 406.078 1043.98 396.838 1028.77 390.029L1030.87 385.371L1030.87 385.345ZM882.543 395.686L885.257 400.011C871.125 408.893 858.581 419.95 848.009 432.901L844.041 429.651C854.972 416.264 867.925 404.823 882.543 395.66L882.543 395.686ZM435.158 547.781C449.34 557.635 461.73 569.665 472.022 583.537L467.9 586.583C457.941 573.146 445.935 561.526 432.213 551.979L435.132 547.781L435.158 547.781ZM1480.48 134.5L1483.96 138.263C1471.68 149.627 1461.38 162.808 1453.4 177.449L1448.89 174.992C1457.16 159.839 1467.78 146.223 1480.48 134.5ZM1709.81 151.444C1720.66 164.882 1729.21 179.88 1735.28 196.031L1730.49 197.822C1724.63 182.184 1716.34 167.671 1705.84 154.669L1709.83 151.444L1709.81 151.444ZM210.006 595.849L214.383 598.511C205.705 612.818 199.509 628.354 195.925 644.659L190.934 643.558C194.62 626.716 201.046 610.643 210.006 595.849ZM1105.19 454.273C1113.43 469.451 1119.09 485.781 1121.98 502.801L1116.94 503.672C1114.15 487.214 1108.67 471.396 1100.68 456.705L1105.19 454.247L1105.19 454.273ZM818.441 472.237L823.228 474.029C817.391 489.642 814.191 506.048 813.679 522.813L808.559 522.66C809.071 505.332 812.399 488.388 818.415 472.237L818.441 472.237ZM495.497 629.225C500.489 644.761 502.997 660.988 502.997 677.471L502.997 680.005L497.877 680.005L497.877 677.471C497.877 661.526 495.42 645.836 490.607 630.786L495.471 629.225L495.497 629.225ZM1432 223.52L1437.04 224.39C1435.58 232.939 1434.81 241.718 1434.81 250.472L1434.81 274.582L1429.69 274.582L1429.69 250.472C1429.69 241.436 1430.46 232.376 1432 223.52ZM1745.31 246.376C1745.39 248.373 1745.42 250.395 1745.42 252.391L1745.42 297.234L1740.3 297.234L1740.3 252.417C1740.3 250.472 1740.27 248.526 1740.19 246.581L1745.31 246.402L1745.31 246.376ZM187.273 694.569L192.393 694.569L192.393 745.324L187.273 745.324L187.273 694.569ZM1119.09 553.864L1124.21 553.864L1124.21 604.619L1119.09 604.619L1119.09 553.864ZM808.482 723.466L813.602 723.466L813.602 774.221L808.482 774.221L808.482 723.466ZM497.877 730.735L502.997 730.735L502.997 781.49L497.877 781.49L497.877 730.735ZM1429.69 325.312L1434.81 325.312L1434.81 376.067L1429.69 376.067L1429.69 325.312ZM1740.3 347.989L1745.42 347.989L1745.42 369.463C1745.42 378.857 1747.95 388.045 1752.71 396.057L1748.31 398.667C1743.06 389.863 1740.3 379.752 1740.3 369.438L1740.3 347.963L1740.3 347.989ZM187.247 796.079L192.367 796.079L192.367 808.186C192.367 822.084 186.786 835.009 176.674 844.556L173.167 840.845C182.255 832.271 187.247 820.676 187.247 808.186L187.247 796.079ZM1119.06 655.374L1124.18 655.374L1124.18 706.129L1119.06 706.129L1119.06 655.374ZM808.457 824.976L813.577 824.976L813.577 875.731L808.457 875.731L808.457 824.976ZM497.852 832.245L502.972 832.245L502.972 883L497.852 883L497.852 832.245ZM1791.98 421.242C1793.8 421.447 1795.67 421.524 1797.51 421.524L1842.47 421.524L1842.47 426.643L1797.51 426.643C1795.49 426.643 1793.44 426.54 1791.45 426.336L1791.98 421.242ZM76.7318 853.079L127.497 853.08L127.497 858.199L76.7318 858.199L76.7318 853.079ZM1429.69 426.847L1434.81 426.847L1434.81 436.603L1429.69 436.603L1429.69 426.847ZM1119.09 715.91L1124.21 715.91L1124.21 725.585C1124.21 739.124 1125.97 752.562 1129.48 765.513L1124.54 766.844C1120.93 753.458 1119.09 739.585 1119.09 725.585L1119.09 715.91ZM808.047 926.307L813.141 926.691C811.836 943.942 807.74 960.733 800.956 976.576L796.245 974.554C802.799 959.223 806.767 942.995 808.047 926.282L808.047 926.307ZM504.15 933.423C506.198 950.034 510.908 966.056 518.204 981.081L513.596 983.308C506.07 967.771 501.18 951.186 499.081 934.037L504.15 933.423ZM1424.5 765.232L1429.44 766.562C1424.98 783.225 1417.81 798.94 1408.19 813.325L1403.94 810.484C1413.26 796.586 1420.17 781.356 1424.5 765.232ZM1150.11 810.714C1159.43 824.561 1170.9 836.744 1184.19 846.906L1181.06 850.975C1167.34 840.481 1155.52 827.888 1145.86 813.555L1150.11 810.688L1150.11 810.714ZM769.519 1016.45L773.333 1019.86C761.788 1032.73 748.322 1043.56 733.321 1052.06L730.812 1047.6C745.353 1039.39 758.383 1028.92 769.545 1016.45L769.519 1016.45ZM546.85 1021.67C558.575 1033.6 572.092 1043.46 586.991 1050.98L584.687 1055.56C569.301 1047.78 555.349 1037.59 543.215 1025.28L546.876 1021.7L546.85 1021.67ZM1369.94 846.726L1373.06 850.796C1359.34 861.341 1344.11 869.506 1327.78 875.06L1326.14 870.223C1341.93 864.848 1356.68 856.964 1369.94 846.752L1369.94 846.726ZM1228.04 870.299C1243.76 875.598 1260.22 878.285 1276.96 878.285L1277.09 880.845L1277.09 883.404C1259.66 883.404 1242.63 880.614 1226.4 875.137L1228.04 870.299ZM684.117 1064.67L685.065 1069.72C668.271 1072.86 650.633 1073.27 633.711 1070.92L634.428 1065.85C650.812 1068.13 667.861 1067.75 684.117 1064.7L684.117 1064.67Z" fill="white"/>
<path d="M961.812 557.312L956.692 557.312L956.692 608.067L961.812 608.067L961.812 557.312Z" fill="white"/>
<path d="M1434.81 475.312L1429.69 475.312L1429.69 526.067L1434.81 526.067L1434.81 475.312Z" fill="white"/>
<path d="M1434.81 555.312L1429.69 555.312L1429.69 606.067L1434.81 606.067L1434.81 555.312Z" fill="white"/>
<path d="M1435.81 655.312L1430.69 655.312L1430.69 706.067L1435.81 706.067L1435.81 655.312Z" fill="white"/>
<path d="M813.602 643.466L808.482 643.466L808.482 694.221L813.602 694.221L813.602 643.466Z" fill="white"/>
<path d="M813.602 563.466L808.482 563.466L808.482 614.221L813.602 614.221L813.602 563.466Z" fill="white"/>
<path d="M1894.92 430.477L1920.52 430.477L1920.52 425.358L1894.92 425.358L1894.92 430.477Z" fill="white"/>
<path d="M343.208 578.01C320.233 578.01 301.608 582.261 301.608 587.505C301.608 592.75 320.233 597.001 343.208 597.001C366.183 597.001 384.808 592.75 384.808 587.505C384.808 582.261 366.183 578.01 343.208 578.01Z" fill="#0A2932"/>
<path d="M255.58 745.683C255.58 794.058 294.799 833.27 343.208 833.27C391.618 833.27 430.812 794.058 430.812 745.683C430.812 714.38 414.376 686.942 389.698 671.457L343.208 587.505L296.719 671.457C272.015 686.942 255.605 714.406 255.605 745.683L255.58 745.683Z" fill="#F39200" stroke="#1D1D1B" stroke-width="0.75" stroke-linecap="round" stroke-linejoin="round"/>
<path d="M275.027 773.866C290.623 811.524 333.788 829.407 371.439 813.809C409.091 798.21 426.97 755.036 411.375 717.378C395.779 679.719 352.614 661.836 314.962 677.435C277.311 693.034 259.431 736.207 275.027 773.866Z" fill="white" stroke="#1D1D1B" stroke-width="0.75" stroke-linecap="round" stroke-linejoin="round"/>
<path d="M361.511 711.822C372.671 711.822 381.732 720.885 381.732 732.046" stroke="#1D1D1B" stroke-width="0.75" stroke-linecap="round" stroke-linejoin="round"/>
<path d="M297.6 786.037L323.835 764.661C325.345 763.432 325.985 761.512 325.704 759.72L333.382 753.474C339.883 762.101 350.198 767.707 361.793 767.707C381.45 767.707 397.421 751.707 397.421 732.072C397.421 712.437 381.424 696.437 361.793 696.437C342.161 696.437 326.164 712.437 326.164 732.072C326.164 738.216 327.726 743.976 330.464 749.019L322.351 755.624C320.636 754.984 318.665 755.214 317.129 756.443L290.894 777.819C289.615 778.869 288.949 780.405 288.949 781.941C288.949 783.118 289.333 784.296 290.152 785.294C291.995 787.573 295.348 787.906 297.6 786.062L297.6 786.037ZM361.793 705.166C376.612 705.166 388.668 717.224 388.668 732.046C388.668 746.869 376.612 758.926 361.793 758.926C346.973 758.926 334.918 746.869 334.918 732.046C334.918 717.224 346.973 705.166 361.793 705.166Z" fill="#F39200" stroke="#1D1D1B" stroke-width="0.75" stroke-linecap="round" stroke-linejoin="round"/>
<path d="M322.351 755.598L325.704 759.72" stroke="#1D1D1B" stroke-width="0.75" stroke-linecap="round" stroke-linejoin="round"/>
<path d="M960.396 463.802C937.421 463.802 918.796 468.053 918.796 473.298C918.796 478.542 937.421 482.794 960.396 482.794C983.371 482.794 1002 478.542 1002 473.298C1002 468.053 983.371 463.802 960.396 463.802Z" fill="#0A2932"/>
<path d="M872.793 631.476C872.793 679.85 912.012 719.062 960.396 719.062C1008.78 719.062 1048 679.85 1048 631.475C1048 600.173 1031.56 572.735 1006.89 557.25L960.396 473.298L913.907 557.25C889.202 572.735 872.793 600.198 872.793 631.476Z" fill="#6352B0" stroke="#1D1D1B" stroke-width="0.75" stroke-linecap="round" stroke-linejoin="round"/>
<path d="M934.138 562.375C896.048 576.887 876.937 619.523 891.452 657.605C905.966 695.687 948.61 714.795 986.7 700.283C1024.79 685.771 1043.9 643.136 1029.39 605.053C1014.87 566.971 972.227 547.863 934.138 562.375Z" fill="white" stroke="#1D1D1B" stroke-width="0.75" stroke-linecap="round" stroke-linejoin="round"/>
<path d="M910.348 623.029L910.348 639.794L920.639 639.794C921.689 644.785 923.66 649.418 926.374 653.564L919.078 660.859L930.93 672.709L938.227 665.415C942.348 668.102 947.007 670.099 951.999 671.148L951.999 681.437L968.767 681.437L968.767 671.148C973.759 670.099 978.393 668.128 982.54 665.415L989.836 672.709L1001.69 660.859L994.393 653.564C997.081 649.443 999.078 644.785 1000.13 639.794L1010.42 639.794L1010.42 623.029L1000.13 623.029C999.078 618.038 997.107 613.405 994.393 609.259L1001.69 601.964L989.836 590.114L982.54 597.408C978.418 594.721 973.759 592.725 968.767 591.675L968.767 581.386L951.999 581.386L951.999 591.675C947.007 592.725 942.374 594.695 938.226 597.408L930.93 590.114L919.078 601.964L926.374 609.259C923.686 613.38 921.689 618.038 920.639 623.029L910.348 623.029ZM960.396 609.361C972.582 609.361 982.463 619.241 982.463 631.424C982.463 643.608 972.582 653.487 960.396 653.487C948.211 653.487 938.329 643.608 938.329 631.424C938.329 619.241 948.211 609.361 960.396 609.361Z" fill="#6352B0" stroke="#1D1D1B" stroke-width="0.75" stroke-linecap="round" stroke-linejoin="round"/>
<path d="M1588.18 162.202C1565.2 162.202 1546.58 166.453 1546.58 171.697C1546.58 176.942 1565.2 181.193 1588.18 181.193C1611.15 181.193 1629.78 176.942 1629.78 171.697C1629.78 166.453 1611.15 162.202 1588.18 162.202Z" fill="#0A2932"/>
<path d="M1500.55 329.875C1500.55 378.25 1539.77 417.487 1588.15 417.487C1636.54 417.487 1675.76 378.276 1675.76 329.875C1675.76 298.572 1659.32 271.134 1634.64 255.649L1588.15 171.697L1541.66 255.649C1516.96 271.134 1500.55 298.598 1500.55 329.875Z" fill="#F388A5" stroke="#1D1D1B" stroke-width="0.75" stroke-linecap="round" stroke-linejoin="round"/>
<path d="M1588.18 256.008C1547.42 256.008 1514.37 289.045 1514.37 329.798C1514.37 370.552 1547.42 403.589 1588.18 403.589C1628.94 403.589 1661.98 370.552 1661.98 329.798C1661.98 289.045 1628.94 256.008 1588.18 256.008Z" fill="white" stroke="#1D1D1B" stroke-width="0.75" stroke-linecap="round" stroke-linejoin="round"/>
<path d="M1558.32 299.921C1541.82 316.414 1541.82 343.153 1558.32 359.646C1574.81 376.139 1601.56 376.139 1618.05 359.646C1634.55 343.153 1634.55 316.414 1618.05 299.921C1601.56 283.428 1574.81 283.428 1558.32 299.921Z" fill="#F388A5" stroke="#1D1D1B" stroke-width="0.75" stroke-linecap="round" stroke-linejoin="round"/>
<path d="M1588.18 356.417L1588.18 387.669" stroke="#1D1D1B" stroke-width="0.75" stroke-linecap="round" stroke-linejoin="round"/>
<path d="M1588.18 271.928L1588.18 303.18" stroke="#1D1D1B" stroke-width="0.75" stroke-linecap="round" stroke-linejoin="round"/>
<path d="M1561.56 329.798L1530.3 329.798" stroke="#1D1D1B" stroke-width="0.75" stroke-linecap="round" stroke-linejoin="round"/>
<path d="M1646.06 329.798L1614.8 329.798" stroke="#1D1D1B" stroke-width="0.75" stroke-linecap="round" stroke-linejoin="round"/>
<path d="M1588.18 324.27C1585.13 324.27 1582.65 326.745 1582.65 329.798C1582.65 332.852 1585.13 335.327 1588.18 335.327C1591.23 335.327 1593.71 332.852 1593.71 329.798C1593.71 326.745 1591.23 324.27 1588.18 324.27Z" fill="#F388A5" stroke="#1D1D1B" stroke-width="0.75" stroke-linecap="round" stroke-linejoin="round"/>
<path d="M696.394 985.923C696.394 991.17 677.757 995.418 654.794 995.418C631.831 995.418 613.194 991.17 613.194 985.923C613.194 980.676 631.831 976.427 654.794 976.427C677.757 976.427 696.394 980.676 696.394 985.923Z" fill="#193F4A"/>
<path d="M742.397 827.745C742.397 779.37 703.178 740.133 654.794 740.133C606.41 740.133 567.191 779.345 567.191 827.745C567.191 859.048 583.626 886.486 608.305 901.971L654.794 985.923L701.284 901.971C725.988 886.486 742.397 859.022 742.397 827.745Z" fill="#DEDC00" stroke="#1D1D1B" stroke-width="0.75" stroke-linecap="round" stroke-linejoin="round"/>
<path d="M654.769 901.612C695.53 901.612 728.573 868.575 728.573 827.822C728.573 787.068 695.53 754.031 654.769 754.031C614.007 754.031 580.964 787.068 580.964 827.822C580.964 868.575 614.007 901.612 654.769 901.612Z" fill="white" stroke="#1D1D1B" stroke-width="0.75" stroke-linecap="round" stroke-linejoin="round"/>
<path d="M682.622 822.293C682.622 806.245 669.617 793.243 653.566 793.243C637.514 793.243 624.51 806.245 624.51 822.293C624.51 834.553 632.113 845.022 642.865 849.27L642.865 860.404L664.266 860.404L664.266 849.27C675.018 844.996 682.622 834.553 682.622 822.293Z" fill="#DEDC00" stroke="#1D1D1B" stroke-width="0.75" stroke-linecap="round" stroke-linejoin="round"/>
<path d="M669.028 860.404L638.078 860.404L638.078 879.601L669.028 879.601L669.028 860.404Z" fill="#DEDC00" stroke="#1D1D1B" stroke-width="0.75" stroke-linecap="round" stroke-linejoin="round"/>
<path d="M638.078 867.008L669.028 867.008" stroke="#1D1D1B" stroke-width="0.75" stroke-linecap="round" stroke-linejoin="round"/>
<path d="M638.078 873.586L669.028 873.586" stroke="#1D1D1B" stroke-width="0.75" stroke-linecap="round" stroke-linejoin="round"/>
<path d="M657.764 858.971C657.764 858.971 657.201 834.63 664.522 827.438C671.844 820.271 667.159 841.029 656.151 833.12C645.143 825.185 659.94 820.988 658.046 827.054C656.151 833.12 651.006 835.884 644.631 833.581C638.257 831.277 640.689 822.523 645.066 826.286C649.444 830.048 649.188 860.174 649.188 860.174" stroke="#1D1D1B" stroke-width="0.75" stroke-linecap="round" stroke-linejoin="round"/>
<path d="M653.566 784.847L653.566 769.926" stroke="#1D1D1B" stroke-width="0.75" stroke-linecap="round" stroke-linejoin="round"/>
<path d="M679.78 795.7L690.327 785.155" stroke="#1D1D1B" stroke-width="0.75" stroke-linecap="round" stroke-linejoin="round"/>
<path d="M629.783 795.7L619.236 785.155" stroke="#1D1D1B" stroke-width="0.75" stroke-linecap="round" stroke-linejoin="round"/>
<path d="M1317.25 796.471C1317.25 801.718 1298.61 805.967 1275.65 805.967C1252.68 805.967 1234.05 801.718 1234.05 796.471C1234.05 791.224 1252.68 786.975 1275.65 786.975C1298.61 786.975 1317.25 791.224 1317.25 796.471Z" fill="#193F4A"/>
<path d="M1363.25 638.293C1363.25 589.919 1324.03 550.681 1275.65 550.681C1227.26 550.681 1188.04 589.893 1188.04 638.293C1188.04 669.596 1204.48 697.034 1229.16 712.519L1275.65 796.471L1322.13 712.519C1346.84 697.034 1363.25 669.571 1363.25 638.293Z" fill="#009FE3" stroke="#1D1D1B" stroke-width="0.75" stroke-linecap="round" stroke-linejoin="round"/>
<path d="M1275.65 712.161C1316.41 712.161 1349.45 679.124 1349.45 638.37C1349.45 597.617 1316.41 564.579 1275.65 564.579C1234.88 564.579 1201.84 597.617 1201.84 638.37C1201.84 679.124 1234.88 712.161 1275.65 712.161Z" fill="white" stroke="#1D1D1B" stroke-width="0.75" stroke-linecap="round" stroke-linejoin="round"/>
<path d="M1331.86 651.756C1339.27 620.666 1320.07 589.454 1288.98 582.042C1257.88 574.629 1226.66 593.824 1219.25 624.913C1211.84 656.003 1231.03 687.215 1262.13 694.627C1293.23 702.039 1324.44 682.845 1331.86 651.756Z" fill="#009FE3" stroke="#1D1D1B" stroke-width="0.75" stroke-linecap="round" stroke-linejoin="round"/>
<path d="M1275.65 685.875C1301.89 685.875 1323.16 664.606 1323.16 638.37C1323.16 612.134 1301.89 590.866 1275.65 590.866C1249.4 590.866 1228.13 612.134 1228.13 638.37C1228.13 664.606 1249.4 685.875 1275.65 685.875Z" fill="white" stroke="#1D1D1B" stroke-width="0.75" stroke-linecap="round" stroke-linejoin="round"/>
<path d="M1274.34 639.215L1291.9 616.333" stroke="#1D1D1B" stroke-width="0.75" stroke-linecap="round" stroke-linejoin="round"/>
<path d="M1274.34 639.215L1301.94 660.382" stroke="#1D1D1B" stroke-width="0.75" stroke-linecap="round" stroke-linejoin="round"/>
<path d="M1275.65 685.875L1275.65 677.991" stroke="#1D1D1B" stroke-width="0.75" stroke-linecap="round" stroke-linejoin="round"/>
<path d="M1275.65 598.723L1275.65 590.866" stroke="#1D1D1B" stroke-width="0.75" stroke-linecap="round" stroke-linejoin="round"/>
<path d="M1228.13 638.37L1235.99 638.37" stroke="#1D1D1B" stroke-width="0.75" stroke-linecap="round" stroke-linejoin="round"/>
<path d="M1315.27 638.37L1323.16 638.37" stroke="#1D1D1B" stroke-width="0.75" stroke-linecap="round" stroke-linejoin="round"/>
<path d="M1279.41 638.37C1279.41 640.443 1277.72 642.133 1275.65 642.133C1273.57 642.133 1271.88 640.443 1271.88 638.37C1271.88 636.297 1273.57 634.608 1275.65 634.608C1277.72 634.608 1279.41 636.297 1279.41 638.37Z" fill="#009FE3" stroke="#1D1D1B" stroke-width="0.75" stroke-linecap="round" stroke-linejoin="round"/>
<path d="M243.289 362.487H237.649V342.387H255.619V347.457H243.289V350.457H255.169V355.497H243.289V362.487ZM262.742 362.487H257.102V342.387H268.832C274.142 342.387 276.932 344.607 276.932 348.537C276.932 351.717 275.342 353.607 271.502 354.087V354.387C273.572 354.927 274.232 355.917 274.982 357.447L277.472 362.487H270.962L268.562 357.567C267.842 356.067 267.242 355.647 265.052 355.647H262.742V362.487ZM262.742 347.457V351.447H268.772C270.422 351.447 271.022 351.147 271.022 349.437C271.022 347.847 270.422 347.457 268.772 347.457H262.742ZM289.202 362.787C282.212 362.787 278.072 358.707 278.072 352.437C278.072 346.167 282.212 342.087 289.202 342.087C296.372 342.087 300.452 346.167 300.452 352.437C300.452 358.707 296.372 362.787 289.202 362.787ZM289.202 357.387C293.282 357.387 294.452 356.427 294.452 352.437C294.452 348.447 293.282 347.487 289.202 347.487C285.122 347.487 284.072 348.447 284.072 352.437C284.072 356.427 285.122 357.387 289.202 357.387ZM307.596 362.487H301.956V342.387H307.956L313.536 349.917L316.476 354.537H316.866L316.596 350.157V342.387H322.236V362.487H316.236L310.296 354.747L307.746 350.787H307.356L307.596 354.627V362.487ZM336.346 362.487H330.706V347.457H323.596V342.387H343.426V347.457H336.346V362.487ZM357.418 355.977H344.788V351.177H357.418V355.977ZM377.081 362.487H359.231V342.387H377.081V347.457H364.871V349.857H376.631V354.897H364.871V357.417H377.081V362.487ZM384.324 362.487H378.684V342.387H384.684L390.264 349.917L393.204 354.537H393.594L393.324 350.157V342.387H398.964V362.487H392.964L387.024 354.747L384.474 350.787H384.084L384.324 354.627V362.487ZM411.274 362.487H401.104V342.387H411.274C417.904 342.387 422.104 346.077 422.104 352.437C422.104 358.797 417.904 362.487 411.274 362.487ZM411.274 347.457H406.744V357.417H411.274C414.844 357.417 416.074 356.967 416.074 352.437C416.074 347.907 414.844 347.457 411.274 347.457ZM221.796 407.487H211.626V387.387H221.796C228.426 387.387 232.626 391.077 232.626 397.437C232.626 403.797 228.426 407.487 221.796 407.487ZM221.796 392.457H217.266V402.417H221.796C225.366 402.417 226.596 401.967 226.596 397.437C226.596 392.907 225.366 392.457 221.796 392.457ZM251.969 407.487H234.119V387.387H251.969V392.457H239.759V394.857H251.519V399.897H239.759V402.417H251.969V407.487ZM268.542 407.487H260.442L252.372 387.387H259.182L264.372 401.787H264.762L269.832 387.387H276.612L268.542 407.487ZM295.064 407.487H277.214V387.387H295.064V392.457H282.854V394.857H294.614V399.897H282.854V402.417H295.064V407.487ZM313.918 407.487H296.668V387.387H302.308V402.417H313.918V407.487ZM326.248 407.787C319.258 407.787 315.118 403.707 315.118 397.437C315.118 391.167 319.258 387.087 326.248 387.087C333.418 387.087 337.498 391.167 337.498 397.437C337.498 403.707 333.418 407.787 326.248 407.787ZM326.248 402.387C330.328 402.387 331.498 401.427 331.498 397.437C331.498 393.447 330.328 392.487 326.248 392.487C322.168 392.487 321.118 393.447 321.118 397.437C321.118 401.427 322.168 402.387 326.248 402.387ZM344.642 407.487H339.002V387.387H350.132C354.902 387.387 357.902 390.117 357.902 394.887C357.902 399.657 354.902 402.417 350.132 402.417H344.642V407.487ZM349.502 392.457H344.642V397.347H349.502C351.482 397.347 352.292 396.957 352.292 394.887C352.292 392.847 351.482 392.457 349.502 392.457ZM364.739 407.487H359.099V387.387H366.749L370.439 395.727L372.419 400.917H372.809L374.699 395.727L378.209 387.387H385.859V407.487H380.219V399.177L380.429 395.817H380.039L378.899 399.177L375.899 406.287H369.059L366.059 399.177L364.919 395.817H364.529L364.739 399.177V407.487ZM405.514 407.487H387.664V387.387H405.514V392.457H393.304V394.857H405.064V399.897H393.304V402.417H405.514V407.487ZM412.757 407.487H407.117V387.387H413.117L418.697 394.917L421.637 399.537H422.027L421.757 395.157V387.387H427.397V407.487H421.397L415.457 399.747L412.907 395.787H412.517L412.757 399.627V407.487ZM441.507 407.487H435.867V392.457H428.757V387.387H448.587V392.457H441.507V407.487Z" fill="white"/>
<path d="M319.71 894.516H314.13L311.33 881.116H315.53L316.65 887.936L317.01 890.956H317.27L317.81 887.936L319.61 881.116H325.27L326.91 887.936L327.39 890.956H327.65L328.05 887.936L329.31 881.116H333.43L330.37 894.516H324.79L323.39 888.776L322.51 884.576H322.25L321.31 888.776L319.71 894.516ZM337.971 894.516H334.211V881.116H337.971V886.096H344.211V881.116H347.971V894.516H344.211V889.476H337.971V894.516ZM356.392 894.716C351.732 894.716 348.972 891.996 348.972 887.816C348.972 883.636 351.732 880.916 356.392 880.916C361.172 880.916 363.892 883.636 363.892 887.816C363.892 891.996 361.172 894.716 356.392 894.716ZM356.392 891.116C359.112 891.116 359.892 890.476 359.892 887.816C359.892 885.156 359.112 884.516 356.392 884.516C353.672 884.516 352.972 885.156 352.972 887.816C352.972 890.476 353.672 891.116 356.392 891.116Z" fill="white"/>
<path d="M920.775 776.046H916.555L922.335 762.646H927.715L933.515 776.046H929.195L928.175 773.566H921.815L920.775 776.046ZM924.015 768.306L923.235 770.186H926.795L926.015 768.306L925.135 766.046H924.875L924.015 768.306ZM945.417 776.046H933.917V762.646H937.677V772.666H945.417V776.046ZM950.177 776.046H946.417V762.646H951.517L953.977 768.206L955.297 771.666H955.557L956.817 768.206L959.157 762.646H964.257V776.046H960.497V770.506L960.637 768.266H960.377L959.617 770.506L957.617 775.246H953.057L951.057 770.506L950.297 768.266H950.037L950.177 770.506V776.046ZM972.68 776.246C968.02 776.246 965.26 773.526 965.26 769.346C965.26 765.166 968.02 762.446 972.68 762.446C977.46 762.446 980.18 765.166 980.18 769.346C980.18 773.526 977.46 776.246 972.68 776.246ZM972.68 772.646C975.4 772.646 976.18 772.006 976.18 769.346C976.18 766.686 975.4 766.046 972.68 766.046C969.96 766.046 969.26 766.686 969.26 769.346C969.26 772.006 969.96 772.646 972.68 772.646ZM987.683 776.246C983.583 776.246 981.083 774.786 981.083 771.386V771.266H984.843V771.686C984.843 772.586 985.163 772.826 987.683 772.826C989.963 772.826 990.203 772.646 990.203 772.046C990.203 771.566 989.943 771.366 988.843 771.226L984.643 770.666C982.143 770.326 980.883 768.986 980.883 766.826C980.883 764.686 982.543 762.446 987.383 762.446C991.643 762.446 993.683 764.306 993.683 767.306V767.426H989.923V767.126C989.923 766.166 989.503 765.846 986.983 765.846C985.063 765.846 984.643 766.106 984.643 766.686C984.643 767.106 984.883 767.306 985.603 767.406L989.803 768.026C993.083 768.506 993.963 770.186 993.963 771.906C993.963 774.206 992.203 776.246 987.683 776.246ZM1003.05 776.046H999.295V766.026H994.555V762.646H1007.77V766.026H1003.05V776.046Z" fill="white"/>
<path d="M1569.15 457.298H1562.37V443.898H1569.15C1573.57 443.898 1576.37 446.358 1576.37 450.598C1576.37 454.838 1573.57 457.298 1569.15 457.298ZM1569.15 447.278H1566.13V453.918H1569.15C1571.53 453.918 1572.35 453.618 1572.35 450.598C1572.35 447.578 1571.53 447.278 1569.15 447.278ZM1584.59 457.498C1579.93 457.498 1577.17 454.778 1577.17 450.598C1577.17 446.418 1579.93 443.698 1584.59 443.698C1589.37 443.698 1592.09 446.418 1592.09 450.598C1592.09 454.778 1589.37 457.498 1584.59 457.498ZM1584.59 453.898C1587.31 453.898 1588.09 453.258 1588.09 450.598C1588.09 447.938 1587.31 447.298 1584.59 447.298C1581.87 447.298 1581.17 447.938 1581.17 450.598C1581.17 453.258 1581.87 453.898 1584.59 453.898ZM1596.85 457.298H1593.09V443.898H1597.09L1600.81 448.918L1602.77 451.998H1603.03L1602.85 449.078V443.898H1606.61V457.298H1602.61L1598.65 452.138L1596.95 449.498H1596.69L1596.85 452.058V457.298ZM1619.72 457.298H1607.82V443.898H1619.72V447.278H1611.58V448.878H1619.42V452.238H1611.58V453.918H1619.72V457.298Z" fill="white"/>
<path d="M641.748 709.417H637.988V699.397H633.248V696.017H646.468V699.397H641.748V709.417ZM651.136 709.417H647.376V696.017H651.136V700.997H657.376V696.017H661.136V709.417H657.376V704.377H651.136V709.417ZM666.097 709.417H662.337V696.017H666.097V709.417ZM673.798 709.617C669.698 709.617 667.198 708.157 667.198 704.757V704.637H670.958V705.057C670.958 705.957 671.278 706.197 673.798 706.197C676.078 706.197 676.318 706.017 676.318 705.417C676.318 704.937 676.058 704.737 674.958 704.597L670.758 704.037C668.258 703.697 666.998 702.357 666.998 700.197C666.998 698.057 668.658 695.817 673.498 695.817C677.758 695.817 679.798 697.677 679.798 700.677V700.797H676.038V700.497C676.038 699.537 675.618 699.217 673.098 699.217C671.178 699.217 670.758 699.477 670.758 700.057C670.758 700.477 670.998 700.677 671.718 700.777L675.918 701.397C679.198 701.877 680.078 703.557 680.078 705.277C680.078 707.577 678.318 709.617 673.798 709.617Z" fill="white"/>
<path d="M1260.57 515.407H1256.81V505.387H1252.07V502.007H1265.29V505.387H1260.57V515.407ZM1269.95 515.407H1266.19V502.007H1269.95V506.987H1276.19V502.007H1279.95V515.407H1276.19V510.367H1269.95V515.407ZM1284.58 515.407H1280.36L1286.14 502.007H1291.52L1297.32 515.407H1293L1291.98 512.927H1285.62L1284.58 515.407ZM1287.82 507.667L1287.04 509.547H1290.6L1289.82 507.667L1288.94 505.407H1288.68L1287.82 507.667ZM1305.92 515.407H1302.16V505.387H1297.42V502.007H1310.64V505.387H1305.92V515.407Z" fill="white"/>
<path d="M565.484 1170.15H555.314V1150.05H565.484C572.114 1150.05 576.314 1153.74 576.314 1160.1C576.314 1166.46 572.114 1170.15 565.484 1170.15ZM565.484 1155.12H560.954V1165.08H565.484C569.054 1165.08 570.284 1164.63 570.284 1160.1C570.284 1155.57 569.054 1155.12 565.484 1155.12ZM582.937 1170.15H576.607L585.277 1150.05H593.347L602.047 1170.15H595.567L594.037 1166.43H584.497L582.937 1170.15ZM587.797 1158.54L586.627 1161.36H591.967L590.797 1158.54L589.477 1155.15H589.087L587.797 1158.54ZM614.95 1170.15H609.31V1155.12H602.2V1150.05H622.03V1155.12H614.95V1170.15ZM628.523 1170.15H622.193L630.863 1150.05H638.933L647.633 1170.15H641.153L639.623 1166.43H630.083L628.523 1170.15ZM633.383 1158.54L632.213 1161.36H637.553L636.383 1158.54L635.063 1155.15H634.673L633.383 1158.54ZM661.706 1170.15H648.236V1150.05H661.016C665.366 1150.05 667.526 1151.76 667.526 1154.91C667.526 1157.49 666.176 1159.32 662.516 1159.47V1159.77C666.536 1159.92 668.456 1161.78 668.456 1164.57C668.456 1167.96 666.506 1170.15 661.706 1170.15ZM653.846 1155.12V1157.67H660.416C661.556 1157.67 661.886 1157.34 661.886 1156.41C661.886 1155.48 661.436 1155.12 660.266 1155.12H653.846ZM653.846 1162.29V1165.08H660.986C662.336 1165.08 662.756 1164.81 662.756 1163.67C662.756 1162.56 662.366 1162.29 660.986 1162.29H653.846ZM674.782 1170.15H668.452L677.122 1150.05H685.192L693.892 1170.15H687.412L685.882 1166.43H676.342L674.782 1170.15ZM679.642 1158.54L678.472 1161.36H683.812L682.642 1158.54L681.322 1155.15H680.932L679.642 1158.54ZM704.246 1170.45C698.096 1170.45 694.346 1168.26 694.346 1163.16V1162.98H699.986V1163.61C699.986 1164.96 700.466 1165.32 704.246 1165.32C707.666 1165.32 708.026 1165.05 708.026 1164.15C708.026 1163.43 707.636 1163.13 705.986 1162.92L699.686 1162.08C695.936 1161.57 694.046 1159.56 694.046 1156.32C694.046 1153.11 696.536 1149.75 703.796 1149.75C710.186 1149.75 713.246 1152.54 713.246 1157.04V1157.22H707.606V1156.77C707.606 1155.33 706.976 1154.85 703.196 1154.85C700.316 1154.85 699.686 1155.24 699.686 1156.11C699.686 1156.74 700.046 1157.04 701.126 1157.19L707.426 1158.12C712.346 1158.84 713.666 1161.36 713.666 1163.94C713.666 1167.39 711.026 1170.45 704.246 1170.45ZM732.854 1170.15H715.004V1150.05H732.854V1155.12H720.644V1157.52H732.404V1162.56H720.644V1165.08H732.854V1170.15ZM533.085 1215.15H527.445V1195.05H535.095L538.785 1203.39L540.765 1208.58H541.155L543.045 1203.39L546.555 1195.05H554.205V1215.15H548.565V1206.84L548.775 1203.48H548.385L547.245 1206.84L544.245 1213.95H537.405L534.405 1206.84L533.265 1203.48H532.875L533.085 1206.84V1215.15ZM561.14 1215.15H554.81L563.48 1195.05H571.55L580.25 1215.15H573.77L572.24 1211.43H562.7L561.14 1215.15ZM566 1203.54L564.83 1206.36H570.17L569 1203.54L567.68 1200.15H567.29L566 1203.54ZM586.494 1215.15H580.854V1195.05H586.854L592.434 1202.58L595.374 1207.2H595.764L595.494 1202.82V1195.05H601.134V1215.15H595.134L589.194 1207.41L586.644 1203.45H586.254L586.494 1207.29V1215.15ZM608.073 1215.15H601.743L610.413 1195.05H618.483L627.183 1215.15H620.703L619.173 1211.43H609.633L608.073 1215.15ZM612.933 1203.54L611.763 1206.36H617.103L615.933 1203.54L614.613 1200.15H614.223L612.933 1203.54ZM637.507 1215.45C631.177 1215.45 627.487 1211.37 627.487 1205.1C627.487 1198.83 631.807 1194.75 639.127 1194.75C645.937 1194.75 649.987 1197.75 649.987 1202.73V1202.94H643.687V1202.73C643.687 1200.87 642.547 1200.15 638.977 1200.15C634.657 1200.15 633.487 1201.11 633.487 1205.1C633.487 1209.09 634.597 1210.05 638.677 1210.05C642.847 1210.05 644.047 1209.84 644.317 1208.31H638.137V1204.17H650.017V1215.15H644.767V1210.86H644.467C643.927 1213.2 642.217 1215.45 637.507 1215.45ZM669.543 1215.15H651.693V1195.05H669.543V1200.12H657.333V1202.52H669.093V1207.56H657.333V1210.08H669.543V1215.15ZM676.787 1215.15H671.147V1195.05H678.797L682.487 1203.39L684.467 1208.58H684.857L686.747 1203.39L690.257 1195.05H697.907V1215.15H692.267V1206.84L692.477 1203.48H692.087L690.947 1206.84L687.947 1213.95H681.107L678.107 1206.84L676.967 1203.48H676.577L676.787 1206.84V1215.15ZM717.561 1215.15H699.711V1195.05H717.561V1200.12H705.351V1202.52H717.111V1207.56H705.351V1210.08H717.561V1215.15ZM724.804 1215.15H719.164V1195.05H725.164L730.744 1202.58L733.684 1207.2H734.074L733.804 1202.82V1195.05H739.444V1215.15H733.444L727.504 1207.41L724.954 1203.45H724.564L724.804 1207.29V1215.15ZM753.554 1215.15H747.914V1200.12H740.804V1195.05H760.634V1200.12H753.554V1215.15Z" fill="white"/>
<path d="M890.203 212.058H880.033V191.958H890.203C896.833 191.958 901.033 195.648 901.033 202.008C901.033 208.368 896.833 212.058 890.203 212.058ZM890.203 197.028H885.673V206.988H890.203C893.773 206.988 895.003 206.538 895.003 202.008C895.003 197.478 893.773 197.028 890.203 197.028ZM907.655 212.058H901.325L909.995 191.958H918.065L926.765 212.058H920.285L918.755 208.338H909.215L907.655 212.058ZM912.515 200.448L911.345 203.268H916.685L915.515 200.448L914.195 197.058H913.805L912.515 200.448ZM939.669 212.058H934.029V197.028H926.919V191.958H946.749V197.028H939.669V212.058ZM953.241 212.058H946.911L955.581 191.958H963.651L972.351 212.058H965.871L964.341 208.338H954.801L953.241 212.058ZM958.101 200.448L956.931 203.268H962.271L961.101 200.448L959.781 197.058H959.391L958.101 200.448ZM986.425 212.058H972.955V191.958H985.735C990.085 191.958 992.245 193.668 992.245 196.818C992.245 199.398 990.895 201.228 987.235 201.378V201.678C991.255 201.828 993.175 203.688 993.175 206.478C993.175 209.868 991.225 212.058 986.425 212.058ZM978.565 197.028V199.578H985.135C986.275 199.578 986.605 199.248 986.605 198.318C986.605 197.388 986.155 197.028 984.985 197.028H978.565ZM978.565 204.198V206.988H985.705C987.055 206.988 987.475 206.718 987.475 205.578C987.475 204.468 987.085 204.198 985.705 204.198H978.565ZM999.501 212.058H993.171L1001.84 191.958H1009.91L1018.61 212.058H1012.13L1010.6 208.338H1001.06L999.501 212.058ZM1004.36 200.448L1003.19 203.268H1008.53L1007.36 200.448L1006.04 197.058H1005.65L1004.36 200.448ZM1028.96 212.358C1022.81 212.358 1019.06 210.168 1019.06 205.068V204.888H1024.7V205.518C1024.7 206.868 1025.18 207.228 1028.96 207.228C1032.38 207.228 1032.74 206.958 1032.74 206.058C1032.74 205.338 1032.35 205.038 1030.7 204.828L1024.4 203.988C1020.65 203.478 1018.76 201.468 1018.76 198.228C1018.76 195.018 1021.25 191.658 1028.51 191.658C1034.9 191.658 1037.96 194.448 1037.96 198.948V199.128H1032.32V198.678C1032.32 197.238 1031.69 196.758 1027.91 196.758C1025.03 196.758 1024.4 197.148 1024.4 198.018C1024.4 198.648 1024.76 198.948 1025.84 199.098L1032.14 200.028C1037.06 200.748 1038.38 203.268 1038.38 205.848C1038.38 209.298 1035.74 212.358 1028.96 212.358ZM1057.57 212.058H1039.72V191.958H1057.57V197.028H1045.36V199.428H1057.12V204.468H1045.36V206.988H1057.57V212.058ZM857.804 257.058H852.164V236.958H859.814L863.504 245.298L865.484 250.488H865.874L867.764 245.298L871.274 236.958H878.924V257.058H873.284V248.748L873.494 245.388H873.104L871.964 248.748L868.964 255.858H862.124L859.124 248.748L857.984 245.388H857.594L857.804 248.748V257.058ZM885.858 257.058H879.528L888.198 236.958H896.268L904.968 257.058H898.488L896.958 253.338H887.418L885.858 257.058ZM890.718 245.448L889.548 248.268H894.888L893.718 245.448L892.398 242.058H892.008L890.718 245.448ZM911.212 257.058H905.572V236.958H911.572L917.152 244.488L920.092 249.108H920.482L920.212 244.728V236.958H925.852V257.058H919.852L913.912 249.318L911.362 245.358H910.972L911.212 249.198V257.058ZM932.792 257.058H926.462L935.132 236.958H943.202L951.902 257.058H945.422L943.892 253.338H934.352L932.792 257.058ZM937.652 245.448L936.482 248.268H941.822L940.652 245.448L939.332 242.058H938.942L937.652 245.448ZM962.225 257.358C955.895 257.358 952.205 253.278 952.205 247.008C952.205 240.738 956.525 236.658 963.845 236.658C970.655 236.658 974.705 239.658 974.705 244.638V244.848H968.405V244.638C968.405 242.778 967.265 242.058 963.695 242.058C959.375 242.058 958.205 243.018 958.205 247.008C958.205 250.998 959.315 251.958 963.395 251.958C967.565 251.958 968.765 251.748 969.035 250.218H962.855V246.078H974.735V257.058H969.485V252.768H969.185C968.645 255.108 966.935 257.358 962.225 257.358ZM994.262 257.058H976.412V236.958H994.262V242.028H982.052V244.428H993.812V249.468H982.052V251.988H994.262V257.058ZM1001.5 257.058H995.865V236.958H1003.51L1007.2 245.298L1009.18 250.488H1009.57L1011.46 245.298L1014.97 236.958H1022.62V257.058H1016.98V248.748L1017.19 245.388H1016.8L1015.66 248.748L1012.66 255.858H1005.82L1002.82 248.748L1001.68 245.388H1001.29L1001.5 248.748V257.058ZM1042.28 257.058H1024.43V236.958H1042.28V242.028H1030.07V244.428H1041.83V249.468H1030.07V251.988H1042.28V257.058ZM1049.52 257.058H1043.88V236.958H1049.88L1055.46 244.488L1058.4 249.108H1058.79L1058.52 244.728V236.958H1064.16V257.058H1058.16L1052.22 249.318L1049.67 245.358H1049.28L1049.52 249.198V257.058ZM1078.27 257.058H1072.63V242.028H1065.52V236.958H1085.35V242.028H1078.27V257.058Z" fill="white"/>
<path d="M1204.97 985.427H1191.5V965.327H1204.28C1208.63 965.327 1210.79 967.037 1210.79 970.187C1210.79 972.767 1209.44 974.597 1205.78 974.747V975.047C1209.8 975.197 1211.72 977.057 1211.72 979.847C1211.72 983.237 1209.77 985.427 1204.97 985.427ZM1197.11 970.397V972.947H1203.68C1204.82 972.947 1205.15 972.617 1205.15 971.687C1205.15 970.757 1204.7 970.397 1203.53 970.397H1197.11ZM1197.11 977.567V980.357H1204.25C1205.6 980.357 1206.02 980.087 1206.02 978.947C1206.02 977.837 1205.63 977.567 1204.25 977.567H1197.11ZM1218.04 985.427H1211.71L1220.38 965.327H1228.45L1237.15 985.427H1230.67L1229.14 981.707H1219.6L1218.04 985.427ZM1222.9 973.817L1221.73 976.637H1227.07L1225.9 973.817L1224.58 970.427H1224.19L1222.9 973.817ZM1248.56 985.727C1241.57 985.727 1237.46 981.647 1237.46 975.377C1237.46 969.107 1241.57 965.027 1248.56 965.027C1255.31 965.027 1259.36 968.237 1259.36 973.607V974.117H1253.06V973.607C1253.06 971.327 1251.98 970.427 1248.65 970.427C1244.57 970.427 1243.46 971.387 1243.46 975.377C1243.46 979.367 1244.57 980.327 1248.65 980.327C1251.98 980.327 1253.06 979.427 1253.06 977.147V976.637H1259.36V977.147C1259.36 982.517 1255.31 985.727 1248.56 985.727ZM1266.48 985.427H1260.84V965.327H1266.48V972.797H1270.53L1275.42 965.327H1282.17L1275.21 975.197L1282.02 985.427H1275.27L1270.59 978.287H1266.48V985.427ZM1295.42 978.917H1282.79V974.117H1295.42V978.917ZM1315.08 985.427H1297.23V965.327H1315.08V970.397H1302.87V972.797H1314.63V977.837H1302.87V980.357H1315.08V985.427ZM1322.32 985.427H1316.68V965.327H1322.68L1328.26 972.857L1331.2 977.477H1331.59L1331.32 973.097V965.327H1336.96V985.427H1330.96L1325.02 977.687L1322.47 973.727H1322.08L1322.32 977.567V985.427ZM1349.27 985.427H1339.1V965.327H1349.27C1355.9 965.327 1360.1 969.017 1360.1 975.377C1360.1 981.737 1355.9 985.427 1349.27 985.427ZM1349.27 970.397H1344.74V980.357H1349.27C1352.84 980.357 1354.07 979.907 1354.07 975.377C1354.07 970.847 1352.84 970.397 1349.27 970.397ZM1167.72 1030.43H1157.55V1010.33H1167.72C1174.35 1010.33 1178.55 1014.02 1178.55 1020.38C1178.55 1026.74 1174.35 1030.43 1167.72 1030.43ZM1167.72 1015.4H1163.19V1025.36H1167.72C1171.29 1025.36 1172.52 1024.91 1172.52 1020.38C1172.52 1015.85 1171.29 1015.4 1167.72 1015.4ZM1197.89 1030.43H1180.04V1010.33H1197.89V1015.4H1185.68V1017.8H1197.44V1022.84H1185.68V1025.36H1197.89V1030.43ZM1214.46 1030.43H1206.36L1198.29 1010.33H1205.1L1210.29 1024.73H1210.68L1215.75 1010.33H1222.53L1214.46 1030.43ZM1240.99 1030.43H1223.14V1010.33H1240.99V1015.4H1228.78V1017.8H1240.54V1022.84H1228.78V1025.36H1240.99V1030.43ZM1259.84 1030.43H1242.59V1010.33H1248.23V1025.36H1259.84V1030.43ZM1272.17 1030.73C1265.18 1030.73 1261.04 1026.65 1261.04 1020.38C1261.04 1014.11 1265.18 1010.03 1272.17 1010.03C1279.34 1010.03 1283.42 1014.11 1283.42 1020.38C1283.42 1026.65 1279.34 1030.73 1272.17 1030.73ZM1272.17 1025.33C1276.25 1025.33 1277.42 1024.37 1277.42 1020.38C1277.42 1016.39 1276.25 1015.43 1272.17 1015.43C1268.09 1015.43 1267.04 1016.39 1267.04 1020.38C1267.04 1024.37 1268.09 1025.33 1272.17 1025.33ZM1290.56 1030.43H1284.92V1010.33H1296.05C1300.82 1010.33 1303.82 1013.06 1303.82 1017.83C1303.82 1022.6 1300.82 1025.36 1296.05 1025.36H1290.56V1030.43ZM1295.42 1015.4H1290.56V1020.29H1295.42C1297.4 1020.29 1298.21 1019.9 1298.21 1017.83C1298.21 1015.79 1297.4 1015.4 1295.42 1015.4ZM1310.66 1030.43H1305.02V1010.33H1312.67L1316.36 1018.67L1318.34 1023.86H1318.73L1320.62 1018.67L1324.13 1010.33H1331.78V1030.43H1326.14V1022.12L1326.35 1018.76H1325.96L1324.82 1022.12L1321.82 1029.23H1314.98L1311.98 1022.12L1310.84 1018.76H1310.45L1310.66 1022.12V1030.43ZM1351.44 1030.43H1333.59V1010.33H1351.44V1015.4H1339.23V1017.8H1350.99V1022.84H1339.23V1025.36H1351.44V1030.43ZM1358.68 1030.43H1353.04V1010.33H1359.04L1364.62 1017.86L1367.56 1022.48H1367.95L1367.68 1018.1V1010.33H1373.32V1030.43H1367.32L1361.38 1022.69L1358.83 1018.73H1358.44L1358.68 1022.57V1030.43ZM1387.43 1030.43H1381.79V1015.4H1374.68V1010.33H1394.51V1015.4H1387.43V1030.43Z" fill="white"/>
<path d="M1479.26 32.3228H1469.09V12.2228H1479.26C1485.89 12.2228 1490.09 15.9128 1490.09 22.2728C1490.09 28.6328 1485.89 32.3228 1479.26 32.3228ZM1479.26 17.2928H1474.73V27.2528H1479.26C1482.83 27.2528 1484.06 26.8028 1484.06 22.2728C1484.06 17.7428 1482.83 17.2928 1479.26 17.2928ZM1509.43 32.3228H1491.58V12.2228H1509.43V17.2928H1497.22V19.6928H1508.98V24.7328H1497.22V27.2528H1509.43V32.3228ZM1526 32.3228H1517.9L1509.83 12.2228H1516.64L1521.83 26.6228H1522.22L1527.29 12.2228H1534.07L1526 32.3228ZM1552.53 32.3228H1534.68V12.2228H1552.53V17.2928H1540.32V19.6928H1552.08V24.7328H1540.32V27.2528H1552.53V32.3228ZM1571.38 32.3228H1554.13V12.2228H1559.77V27.2528H1571.38V32.3228ZM1583.71 32.6228C1576.72 32.6228 1572.58 28.5428 1572.58 22.2728C1572.58 16.0028 1576.72 11.9228 1583.71 11.9228C1590.88 11.9228 1594.96 16.0028 1594.96 22.2728C1594.96 28.5428 1590.88 32.6228 1583.71 32.6228ZM1583.71 27.2228C1587.79 27.2228 1588.96 26.2628 1588.96 22.2728C1588.96 18.2828 1587.79 17.3228 1583.71 17.3228C1579.63 17.3228 1578.58 18.2828 1578.58 22.2728C1578.58 26.2628 1579.63 27.2228 1583.71 27.2228ZM1602.1 32.3228H1596.46V12.2228H1607.59C1612.36 12.2228 1615.36 14.9528 1615.36 19.7228C1615.36 24.4928 1612.36 27.2528 1607.59 27.2528H1602.1V32.3228ZM1606.96 17.2928H1602.1V22.1828H1606.96C1608.94 22.1828 1609.75 21.7928 1609.75 19.7228C1609.75 17.6828 1608.94 17.2928 1606.96 17.2928ZM1622.2 32.3228H1616.56V12.2228H1624.21L1627.9 20.5628L1629.88 25.7528H1630.27L1632.16 20.5628L1635.67 12.2228H1643.32V32.3228H1637.68V24.0128L1637.89 20.6528H1637.5L1636.36 24.0128L1633.36 31.1228H1626.52L1623.52 24.0128L1622.38 20.6528H1621.99L1622.2 24.0128V32.3228ZM1662.97 32.3228H1645.12V12.2228H1662.97V17.2928H1650.76V19.6928H1662.52V24.7328H1650.76V27.2528H1662.97V32.3228ZM1670.22 32.3228H1664.58V12.2228H1670.58L1676.16 19.7528L1679.1 24.3728H1679.49L1679.22 19.9928V12.2228H1684.86V32.3228H1678.86L1672.92 24.5828L1670.37 20.6228H1669.98L1670.22 24.4628V32.3228ZM1698.97 32.3228H1693.33V17.2928H1686.22V12.2228H1706.05V17.2928H1698.97V32.3228Z" fill="white"/>
</svg>
