<svg width="461" height="985" viewBox="0 0 461 985" fill="none" xmlns="http://www.w3.org/2000/svg">
<g opacity="0.16">
<path d="M340.299 616C406.353 474.348 345.068 305.968 203.415 239.914C61.7625 173.86 -106.617 235.146 -172.671 376.798C-238.725 518.451 -177.439 686.831 -35.7867 752.885C105.866 818.938 274.246 757.653 340.299 616Z" stroke="#6DA3B0"/>
<path d="M288.106 727.929C354.043 586.527 292.664 418.35 151.011 352.296C9.35704 286.242 -158.927 347.326 -224.864 488.727C-290.801 630.129 -229.422 798.306 -87.7687 864.36C53.8849 930.414 222.169 869.331 288.106 727.929Z" stroke="#6DA3B0"/>
<path d="M33.4336 609.174C99.3703 467.772 37.9917 299.595 -103.662 233.541C-245.316 167.487 -413.6 228.57 -479.537 369.972C-545.473 511.374 -484.095 679.551 -342.441 745.605C-200.788 811.659 -32.5032 750.575 33.4336 609.174Z" stroke="#6DA3B0"/>
</g>
</svg>
