<svg width="19" height="19" viewBox="0 0 19 19" fill="none" xmlns="http://www.w3.org/2000/svg">
<path d="M6.13162 0.986328C3.2499 0.986328 0.906738 3.32949 0.906738 6.21121V13.4457C0.906738 16.3274 3.2499 18.6705 6.13162 18.6705H13.3661C16.2478 18.6705 18.591 16.3274 18.591 13.4457V6.21121C18.591 3.32949 16.2478 0.986328 13.3661 0.986328H6.13162ZM14.5718 4.20164C15.0139 4.20164 15.3756 4.56336 15.3756 5.00547C15.3756 5.44757 15.0139 5.8093 14.5718 5.8093C14.1297 5.8093 13.768 5.44757 13.768 5.00547C13.768 4.56336 14.1297 4.20164 14.5718 4.20164ZM9.74884 5.40738C12.1885 5.40738 14.1699 7.38882 14.1699 9.82843C14.1699 12.2681 12.1885 14.2495 9.74884 14.2495C7.30923 14.2495 5.32779 12.2681 5.32779 9.82843C5.32779 7.38882 7.30923 5.40738 9.74884 5.40738ZM9.74884 6.21121C7.75535 6.21121 6.13162 7.83494 6.13162 9.82843C6.13162 11.8219 7.75535 13.4457 9.74884 13.4457C11.7423 13.4457 13.3661 11.8219 13.3661 9.82843C13.3661 7.83494 11.7423 6.21121 9.74884 6.21121Z" fill="#38B981"/>
</svg>
