<svg width="1220" height="41" viewBox="0 0 1220 41" fill="none" xmlns="http://www.w3.org/2000/svg">
<g opacity="0.3">
<path d="M515 0.223877L516.566 10.3104C517.233 14.614 520.61 17.9905 524.914 18.6584L535 20.2239L524.914 21.7893C520.61 22.4573 517.233 25.8337 516.566 30.1374L515 40.2239L513.435 30.1374C512.767 25.8337 509.39 22.4573 505.087 21.7893L495 20.2239L505.087 18.6584C509.39 17.9905 512.767 14.614 513.435 10.3104L515 0.223877Z" fill="black"/>
<path d="M610 0.223877L611.566 10.3104C612.233 14.614 615.61 17.9905 619.914 18.6584L630 20.2239L619.914 21.7893C615.61 22.4573 612.233 25.8337 611.566 30.1374L610 40.2239L608.435 30.1374C607.767 25.8337 604.39 22.4573 600.087 21.7893L590 20.2239L600.087 18.6584C604.39 17.9905 607.767 14.614 608.435 10.3104L610 0.223877Z" fill="black"/>
<path d="M705 0.223877L706.566 10.3104C707.233 14.614 710.61 17.9905 714.914 18.6584L725 20.2239L714.914 21.7893C710.61 22.4573 707.233 25.8337 706.566 30.1374L705 40.2239L703.435 30.1374C702.767 25.8337 699.39 22.4573 695.087 21.7893L685 20.2239L695.087 18.6584C699.39 17.9905 702.767 14.614 703.435 10.3104L705 0.223877Z" fill="black"/>
</g>
<path opacity="0.3" d="M6.10352e-05 20.2239H480" stroke="black"/>
<path opacity="0.3" d="M740 20.2239H1220" stroke="black"/>
</svg>
