<svg width="59" height="41" viewBox="0 0 59 41" fill="none" xmlns="http://www.w3.org/2000/svg">
<path d="M14.7763 40.9508C11.0922 40.9508 7.77646 39.4772 4.82916 36.5298C1.88186 33.4773 0.408203 29.0036 0.408203 23.1091C0.408203 16.3723 2.19763 10.8988 5.7765 6.68838C9.46063 2.3727 14.671 0.214844 21.4077 0.214844C23.8287 0.214844 25.7234 0.372732 27.0918 0.688509V7.95151C25.6182 7.74098 23.7235 7.63573 21.4077 7.63573C17.8288 7.63573 14.9342 8.84622 12.7237 11.2672C10.6185 13.3724 9.408 16.1619 9.09222 19.6355C10.4606 17.9512 12.6711 17.1092 15.7236 17.1092C18.8815 17.1092 21.5656 18.2144 23.7761 20.4249C25.9866 22.5301 27.0918 25.3195 27.0918 28.7932C27.0918 32.3721 25.934 35.3193 23.6182 37.6351C21.3024 39.8455 18.3552 40.9508 14.7763 40.9508ZM46.1967 40.9508C42.5126 40.9508 39.1969 39.4772 36.2495 36.5298C33.3022 33.4773 31.8286 29.0036 31.8286 23.1091C31.8286 16.3723 33.6179 10.8988 37.1969 6.68838C40.8809 2.3727 46.0913 0.214844 52.8281 0.214844C55.249 0.214844 57.1437 0.372732 58.5122 0.688509V7.95151C57.0386 7.74098 55.1439 7.63573 52.8281 7.63573C49.2492 7.63573 46.3545 8.84622 44.1441 11.2672C42.0389 13.3724 40.8284 16.1619 40.5126 19.6355C41.881 17.9512 44.0915 17.1092 47.144 17.1092C50.3018 17.1092 52.986 18.2144 55.1965 20.4249C57.4069 22.5301 58.5122 25.3195 58.5122 28.7932C58.5122 32.3721 57.3543 35.3193 55.0386 37.6351C52.7228 39.8455 49.7756 40.9508 46.1967 40.9508Z" fill="white"/>
</svg>
