<svg width="27" height="26" viewBox="0 0 27 26" fill="none" xmlns="http://www.w3.org/2000/svg">
<path d="M14.4902 1.08789L17.6641 7.58203L24.6465 8.60742C25.2324 8.70508 25.7207 9.0957 25.916 9.68164C26.1113 10.2188 25.9648 10.8535 25.5254 11.2441L20.4473 16.2734L21.668 23.4023C21.7656 23.9883 21.5215 24.5742 21.0332 24.916C20.5449 25.3066 19.9102 25.3066 19.373 25.0625L13.123 21.6934L6.82422 25.0625C6.33594 25.3066 5.70117 25.3066 5.21289 24.916C4.72461 24.5742 4.48047 23.9883 4.57812 23.4023L5.75 16.2734L0.671875 11.2441C0.28125 10.8535 0.134766 10.2188 0.28125 9.68164C0.476562 9.0957 0.964844 8.70508 1.55078 8.60742L8.58203 7.58203L11.707 1.08789C11.9512 0.550781 12.4883 0.208984 13.123 0.208984C13.709 0.208984 14.2461 0.550781 14.4902 1.08789Z" fill="#38B981"/>
</svg>
