<svg width="726" height="41" viewBox="0 0 726 41" fill="none" xmlns="http://www.w3.org/2000/svg">
<g opacity="0.3">
<path d="M515.568 0.16748L517.133 10.254C517.801 14.5576 521.178 17.9341 525.481 18.602L535.568 20.1675L525.481 21.7329C521.178 22.4009 517.801 25.7773 517.133 30.081L515.568 40.1675L514.002 30.081C513.334 25.7773 509.958 22.4009 505.654 21.7329L495.568 20.1675L505.654 18.602C509.958 17.9341 513.334 14.5576 514.002 10.254L515.568 0.16748Z" fill="black"/>
<path d="M610.568 0.16748L612.133 10.254C612.801 14.5576 616.178 17.9341 620.481 18.602L630.568 20.1675L620.481 21.7329C616.178 22.4009 612.801 25.7773 612.133 30.081L610.568 40.1675L609.002 30.081C608.334 25.7773 604.958 22.4009 600.654 21.7329L590.568 20.1675L600.654 18.602C604.958 17.9341 608.334 14.5576 609.002 10.254L610.568 0.16748Z" fill="black"/>
<path d="M705.568 0.16748L707.133 10.254C707.801 14.5576 711.178 17.9341 715.481 18.602L725.568 20.1675L715.481 21.7329C711.178 22.4009 707.801 25.7773 707.133 30.081L705.568 40.1675L704.002 30.081C703.334 25.7773 699.958 22.4009 695.654 21.7329L685.568 20.1675L695.654 18.602C699.958 17.9341 703.334 14.5576 704.002 10.254L705.568 0.16748Z" fill="black"/>
</g>
<path opacity="0.3" d="M0.567871 20.1675H480.568" stroke="black"/>
</svg>
