<svg width="21" height="16" viewBox="0 0 21 16" fill="none" xmlns="http://www.w3.org/2000/svg">
<path d="M19.9581 3.01263C19.7753 2.00403 18.9047 1.26953 17.8943 1.04022C16.3823 0.719543 13.584 0.490234 10.5564 0.490234C7.53058 0.490234 4.68751 0.719543 3.17371 1.04022C2.16511 1.26953 1.29266 1.95745 1.10993 3.01263C0.925407 4.15918 0.742676 5.76434 0.742676 7.82812C0.742676 9.89191 0.925407 11.4971 1.15472 12.6436C1.33924 13.6522 2.2099 14.3867 3.2185 14.616C4.82366 14.9367 7.57537 15.166 10.603 15.166C13.6306 15.166 16.3823 14.9367 17.9874 14.616C18.996 14.3867 19.8667 13.6988 20.0512 12.6436C20.2339 11.4971 20.4633 9.84533 20.5098 7.82812C20.4167 5.76434 20.1874 4.15918 19.9581 3.01263ZM8.08057 11.0385V4.6178L13.6753 7.82812L8.08057 11.0385Z" fill="#38B981"/>
</svg>
